<?xml version="1.0" standalone="no"?>
<!DOCTYPE svg PUBLIC "-//W3C//DTD SVG 20010904//EN"
 "http://www.w3.org/TR/2001/REC-SVG-20010904/DTD/svg10.dtd">
<svg version="1.0" xmlns="http://www.w3.org/2000/svg"
 width="403.000000pt" height="512.000000pt" viewBox="0 0 403.000000 512.000000"
 preserveAspectRatio="xMidYMid meet">

<g transform="translate(0.000000,512.000000) scale(0.100000,-0.100000)"
fill="#000000" stroke="none">
<path d="M1728 4596 c-647 -114 -1041 -597 -1015 -1246 11 -292 96 -522 350
-948 127 -212 200 -360 242 -486 32 -96 61 -258 49 -277 -3 -5 62 -9 148 -9
l154 0 -8 98 c-20 247 -100 452 -329 839 -173 292 -234 421 -281 597 -18 67
-22 108 -22 236 0 167 11 235 61 358 56 141 159 274 282 365 106 78 279 149
431 177 92 17 300 15 390 -5 456 -96 733 -402 757 -836 15 -264 -54 -466 -301
-883 -239 -405 -316 -602 -333 -848 l-6 -98 152 0 c85 0 150 4 147 9 -12 19
17 181 49 279 42 123 119 277 255 507 243 409 325 635 337 921 27 632 -335
1098 -962 1240 -96 22 -442 28 -547 10z"/>
<path d="M2128 3711 c-81 -113 -242 -338 -357 -498 l-211 -293 219 0 219 0
-99 -342 c-54 -188 -97 -343 -96 -345 3 -3 668 971 675 989 2 4 -85 8 -193 8
l-197 0 7 28 c3 15 47 168 96 341 50 172 89 314 87 315 -2 2 -69 -90 -150
-203z"/>
<path d="M1478 1454 c-36 -19 -48 -43 -48 -94 0 -52 13 -76 50 -95 43 -22 947
-22 990 0 37 19 50 43 50 95 0 52 -13 76 -50 95 -43 22 -951 22 -992 -1z"/>
<path d="M1505 1088 c-38 -20 -55 -51 -55 -100 0 -39 5 -52 31 -77 l31 -31
463 0 463 0 31 29 c27 25 31 36 31 78 0 51 -18 82 -57 102 -30 15 -910 15
-938 -1z"/>
<path d="M1654 647 c161 -151 153 -147 322 -147 l142 0 49 38 c39 32 141 121
213 188 12 12 -50 14 -405 14 l-420 0 99 -93z"/>
</g>
</svg>
